<svg viewBox="0 0 800 500" preserveAspectRatio="none" xmlns="http://www.w3.org/2000/svg" xmlns:xlink="http://www.w3.org/1999/xlink" width="100%" id="blobSvg">
  <g transform="translate(359, -12)">
    <defs>
      <linearGradient id="gradient" x1="0%" y1="0%" x2="0%" y2="100%">
        <stop offset="0%" style="stop-color: rgb(93, 63, 106);"></stop>
        <stop offset="100%" style="stop-color: rgb(137, 114, 158);"></stop>
      </linearGradient>
    </defs>
    <path class="blob" d="M367.5,302Q310,354,247.5,358.5Q185,363,141,306.5Q97,250,143.5,198.5Q190,147,265,121Q340,95,382.5,172.5Q425,250,367.5,302Z" fill="url(#gradient)"></path>
  </g>
  <g transform="translate(316, -66)">
    <defs>
      <linearGradient id="gradient" x1="0%" y1="0%" x2="0%" y2="100%">
        <stop offset="0%" style="stop-color: rgb(93, 63, 106);"></stop>
        <stop offset="100%" style="stop-color: rgb(137, 114, 158);"></stop>
      </linearGradient>
    </defs>
    <path class="blob" d="M367.5,302Q310,354,247.5,358.5Q185,363,141,306.5Q97,250,143.5,198.5Q190,147,265,121Q340,95,382.5,172.5Q425,250,367.5,302Z" fill="url(#gradient)"></path>
  </g>
  <g transform="translate(134, 72)">
    <defs>
      <linearGradient id="gradient" x1="0%" y1="0%" x2="0%" y2="100%">
        <stop offset="0%" style="stop-color: rgb(93, 63, 106);"></stop>
        <stop offset="100%" style="stop-color: rgb(137, 114, 158);"></stop>
      </linearGradient>
    </defs>
    <path class="blob" d="M367.5,302Q310,354,247.5,358.5Q185,363,141,306.5Q97,250,143.5,198.5Q190,147,265,121Q340,95,382.5,172.5Q425,250,367.5,302Z" fill="url(#gradient)"></path>
  </g>
  <g transform="translate(115, 49)">
    <defs>
      <linearGradient id="gradient" x1="0%" y1="0%" x2="0%" y2="100%">
        <stop offset="0%" style="stop-color: rgb(93, 63, 106);"></stop>
        <stop offset="100%" style="stop-color: rgb(137, 114, 158);"></stop>
      </linearGradient>
    </defs>
    <path class="blob" d="M367.5,302Q310,354,247.5,358.5Q185,363,141,306.5Q97,250,143.5,198.5Q190,147,265,121Q340,95,382.5,172.5Q425,250,367.5,302Z" fill="url(#gradient)"></path>
  </g>
</svg>