<?xml version="1.0" standalone="no"?>
<svg xmlns:xlink="http://www.w3.org/1999/xlink" id="wave" style="transform:rotate(0deg); transition: 0.3s" viewBox="0 0 1440 490" version="1.1" xmlns="http://www.w3.org/2000/svg"><defs><linearGradient id="sw-gradient-0" x1="0" x2="0" y1="1" y2="0"><stop stop-color="rgba(89.463, 62, 243, 1)" offset="0%"/><stop stop-color="rgba(133.709, 0, 255, 1)" offset="100%"/></linearGradient></defs><path style="transform:translate(0, 0px); opacity:1" fill="url(#sw-gradient-0)" d="M0,441L26.7,408.3C53.3,376,107,310,160,277.7C213.3,245,267,245,320,261.3C373.3,278,427,310,480,277.7C533.3,245,587,147,640,106.2C693.3,65,747,82,800,89.8C853.3,98,907,98,960,81.7C1013.3,65,1067,33,1120,57.2C1173.3,82,1227,163,1280,171.5C1333.3,180,1387,114,1440,122.5C1493.3,131,1547,212,1600,277.7C1653.3,343,1707,392,1760,359.3C1813.3,327,1867,212,1920,155.2C1973.3,98,2027,98,2080,122.5C2133.3,147,2187,196,2240,204.2C2293.3,212,2347,180,2400,171.5C2453.3,163,2507,180,2560,187.8C2613.3,196,2667,196,2720,163.3C2773.3,131,2827,65,2880,40.8C2933.3,16,2987,33,3040,65.3C3093.3,98,3147,147,3200,179.7C3253.3,212,3307,229,3360,236.8C3413.3,245,3467,245,3520,245C3573.3,245,3627,245,3680,204.2C3733.3,163,3787,82,3813,40.8L3840,0L3840,490L3813.3,490C3786.7,490,3733,490,3680,490C3626.7,490,3573,490,3520,490C3466.7,490,3413,490,3360,490C3306.7,490,3253,490,3200,490C3146.7,490,3093,490,3040,490C2986.7,490,2933,490,2880,490C2826.7,490,2773,490,2720,490C2666.7,490,2613,490,2560,490C2506.7,490,2453,490,2400,490C2346.7,490,2293,490,2240,490C2186.7,490,2133,490,2080,490C2026.7,490,1973,490,1920,490C1866.7,490,1813,490,1760,490C1706.7,490,1653,490,1600,490C1546.7,490,1493,490,1440,490C1386.7,490,1333,490,1280,490C1226.7,490,1173,490,1120,490C1066.7,490,1013,490,960,490C906.7,490,853,490,800,490C746.7,490,693,490,640,490C586.7,490,533,490,480,490C426.7,490,373,490,320,490C266.7,490,213,490,160,490C106.7,490,53,490,27,490L0,490Z"/><defs><linearGradient id="sw-gradient-1" x1="0" x2="0" y1="1" y2="0"><stop stop-color="rgba(171.85, 130.733, 227.999, 1)" offset="0%"/><stop stop-color="rgba(255, 255, 255, 1)" offset="100%"/></linearGradient></defs><path style="transform:translate(0, 50px); opacity:0.9" fill="url(#sw-gradient-1)" d="M0,98L26.7,147C53.3,196,107,294,160,277.7C213.3,261,267,131,320,89.8C373.3,49,427,98,480,106.2C533.3,114,587,82,640,98C693.3,114,747,180,800,220.5C853.3,261,907,278,960,261.3C1013.3,245,1067,196,1120,212.3C1173.3,229,1227,310,1280,359.3C1333.3,408,1387,425,1440,383.8C1493.3,343,1547,245,1600,245C1653.3,245,1707,343,1760,359.3C1813.3,376,1867,310,1920,245C1973.3,180,2027,114,2080,89.8C2133.3,65,2187,82,2240,89.8C2293.3,98,2347,98,2400,122.5C2453.3,147,2507,196,2560,204.2C2613.3,212,2667,180,2720,155.2C2773.3,131,2827,114,2880,155.2C2933.3,196,2987,294,3040,277.7C3093.3,261,3147,131,3200,65.3C3253.3,0,3307,0,3360,65.3C3413.3,131,3467,261,3520,285.8C3573.3,310,3627,229,3680,212.3C3733.3,196,3787,245,3813,269.5L3840,294L3840,490L3813.3,490C3786.7,490,3733,490,3680,490C3626.7,490,3573,490,3520,490C3466.7,490,3413,490,3360,490C3306.7,490,3253,490,3200,490C3146.7,490,3093,490,3040,490C2986.7,490,2933,490,2880,490C2826.7,490,2773,490,2720,490C2666.7,490,2613,490,2560,490C2506.7,490,2453,490,2400,490C2346.7,490,2293,490,2240,490C2186.7,490,2133,490,2080,490C2026.7,490,1973,490,1920,490C1866.7,490,1813,490,1760,490C1706.7,490,1653,490,1600,490C1546.7,490,1493,490,1440,490C1386.7,490,1333,490,1280,490C1226.7,490,1173,490,1120,490C1066.7,490,1013,490,960,490C906.7,490,853,490,800,490C746.7,490,693,490,640,490C586.7,490,533,490,480,490C426.7,490,373,490,320,490C266.7,490,213,490,160,490C106.7,490,53,490,27,490L0,490Z"/></svg>